<mxfile host="app.diagrams.net" agent="Mozilla/5.0 (Windows NT 10.0; Win64; x64) AppleWebKit/537.36 (KHTML, like Gecko) Chrome/131.0.0.0 Safari/537.36 Edg/131.0.0.0" version="25.0.3">
  <diagram name="Page-1" id="Krth3ijGd0p5UnFTgE5l">
    <mxGraphModel dx="3832" dy="2404" grid="1" gridSize="10" guides="1" tooltips="1" connect="1" arrows="1" fold="1" page="1" pageScale="1" pageWidth="850" pageHeight="1100" math="0" shadow="0">
      <root>
        <mxCell id="0" />
        <mxCell id="1" parent="0" />
        <mxCell id="I36a9Z0xhqDszeVbLj8E-1" value="" style="ellipse;whiteSpace=wrap;html=1;aspect=fixed;" vertex="1" parent="1">
          <mxGeometry x="-90" y="-20" width="650" height="650" as="geometry" />
        </mxCell>
        <mxCell id="I36a9Z0xhqDszeVbLj8E-2" value="" style="ellipse;whiteSpace=wrap;html=1;aspect=fixed;" vertex="1" parent="1">
          <mxGeometry x="-1630" y="-190" width="1100" height="1100" as="geometry" />
        </mxCell>
        <mxCell id="I36a9Z0xhqDszeVbLj8E-3" value="CMD" style="text;html=1;align=center;verticalAlign=middle;whiteSpace=wrap;rounded=0;" vertex="1" parent="1">
          <mxGeometry x="190" y="30" width="60" height="30" as="geometry" />
        </mxCell>
        <mxCell id="I36a9Z0xhqDszeVbLj8E-4" value="INTERNAL" style="text;html=1;align=center;verticalAlign=middle;whiteSpace=wrap;rounded=0;" vertex="1" parent="1">
          <mxGeometry x="-1120" y="30" width="60" height="30" as="geometry" />
        </mxCell>
        <mxCell id="I36a9Z0xhqDszeVbLj8E-6" value="" style="ellipse;whiteSpace=wrap;html=1;aspect=fixed;" vertex="1" parent="1">
          <mxGeometry y="100" width="430" height="430" as="geometry" />
        </mxCell>
        <mxCell id="I36a9Z0xhqDszeVbLj8E-7" value="API" style="text;html=1;align=center;verticalAlign=middle;whiteSpace=wrap;rounded=0;" vertex="1" parent="1">
          <mxGeometry x="190" y="110" width="60" height="30" as="geometry" />
        </mxCell>
        <mxCell id="I36a9Z0xhqDszeVbLj8E-9" value="DEPENDECIES.GO" style="shape=note;whiteSpace=wrap;html=1;backgroundOutline=1;darkOpacity=0.05;" vertex="1" parent="1">
          <mxGeometry x="145" y="177.5" width="140" height="80" as="geometry" />
        </mxCell>
        <mxCell id="I36a9Z0xhqDszeVbLj8E-10" value="HANDLER.GO" style="shape=note;whiteSpace=wrap;html=1;backgroundOutline=1;darkOpacity=0.05;" vertex="1" parent="1">
          <mxGeometry x="145" y="275" width="140" height="80" as="geometry" />
        </mxCell>
        <mxCell id="I36a9Z0xhqDszeVbLj8E-11" value="SERVER.GO" style="shape=note;whiteSpace=wrap;html=1;backgroundOutline=1;darkOpacity=0.05;" vertex="1" parent="1">
          <mxGeometry x="145" y="370" width="140" height="80" as="geometry" />
        </mxCell>
        <mxCell id="I36a9Z0xhqDszeVbLj8E-12" value="MAIN.GO" style="shape=note;whiteSpace=wrap;html=1;backgroundOutline=1;darkOpacity=0.05;" vertex="1" parent="1">
          <mxGeometry x="420" y="177.5" width="120" height="72.5" as="geometry" />
        </mxCell>
        <mxCell id="I36a9Z0xhqDszeVbLj8E-14" value="" style="ellipse;whiteSpace=wrap;html=1;aspect=fixed;" vertex="1" parent="1">
          <mxGeometry x="-1575" y="140" width="470" height="470" as="geometry" />
        </mxCell>
        <mxCell id="I36a9Z0xhqDszeVbLj8E-15" value="DOMAIN" style="text;html=1;align=center;verticalAlign=middle;whiteSpace=wrap;rounded=0;" vertex="1" parent="1">
          <mxGeometry x="-1340" y="180" width="60" height="30" as="geometry" />
        </mxCell>
        <mxCell id="I36a9Z0xhqDszeVbLj8E-17" value="" style="ellipse;whiteSpace=wrap;html=1;aspect=fixed;" vertex="1" parent="1">
          <mxGeometry x="-1490" y="257.5" width="280" height="280" as="geometry" />
        </mxCell>
        <mxCell id="I36a9Z0xhqDszeVbLj8E-18" value="USER" style="text;html=1;align=center;verticalAlign=middle;whiteSpace=wrap;rounded=0;" vertex="1" parent="1">
          <mxGeometry x="-1390" y="257.5" width="60" height="30" as="geometry" />
        </mxCell>
        <mxCell id="I36a9Z0xhqDszeVbLj8E-19" value="SERVICE.GO" style="shape=note;whiteSpace=wrap;html=1;backgroundOutline=1;darkOpacity=0.05;" vertex="1" parent="1">
          <mxGeometry x="-1415" y="340" width="140" height="80" as="geometry" />
        </mxCell>
        <mxCell id="I36a9Z0xhqDszeVbLj8E-20" value="USER.GO" style="shape=note;whiteSpace=wrap;html=1;backgroundOutline=1;darkOpacity=0.05;" vertex="1" parent="1">
          <mxGeometry x="-1410" y="430" width="140" height="80" as="geometry" />
        </mxCell>
        <mxCell id="I36a9Z0xhqDszeVbLj8E-23" value="" style="ellipse;whiteSpace=wrap;html=1;aspect=fixed;" vertex="1" parent="1">
          <mxGeometry x="-1040" y="150" width="480" height="480" as="geometry" />
        </mxCell>
        <mxCell id="I36a9Z0xhqDszeVbLj8E-24" value="PLATFORM" style="text;html=1;align=center;verticalAlign=middle;whiteSpace=wrap;rounded=0;" vertex="1" parent="1">
          <mxGeometry x="-835" y="180" width="60" height="30" as="geometry" />
        </mxCell>
        <mxCell id="I36a9Z0xhqDszeVbLj8E-25" value="" style="ellipse;whiteSpace=wrap;html=1;aspect=fixed;" vertex="1" parent="1">
          <mxGeometry x="-1000" y="225" width="375" height="375" as="geometry" />
        </mxCell>
        <mxCell id="I36a9Z0xhqDszeVbLj8E-26" value="USER" style="text;html=1;align=center;verticalAlign=middle;whiteSpace=wrap;rounded=0;" vertex="1" parent="1">
          <mxGeometry x="-835" y="245" width="60" height="30" as="geometry" />
        </mxCell>
        <mxCell id="I36a9Z0xhqDszeVbLj8E-29" value="CONNECTI.GO" style="shape=note;whiteSpace=wrap;html=1;backgroundOutline=1;darkOpacity=0.05;" vertex="1" parent="1">
          <mxGeometry x="-875" y="290" width="140" height="80" as="geometry" />
        </mxCell>
        <mxCell id="I36a9Z0xhqDszeVbLj8E-30" value="REPOSITORY.GO" style="shape=note;whiteSpace=wrap;html=1;backgroundOutline=1;darkOpacity=0.05;" vertex="1" parent="1">
          <mxGeometry x="-870" y="400" width="140" height="80" as="geometry" />
        </mxCell>
        <mxCell id="I36a9Z0xhqDszeVbLj8E-31" value="USER.GO" style="shape=note;whiteSpace=wrap;html=1;backgroundOutline=1;darkOpacity=0.05;" vertex="1" parent="1">
          <mxGeometry x="-875" y="500" width="140" height="80" as="geometry" />
        </mxCell>
        <mxCell id="I36a9Z0xhqDszeVbLj8E-34" style="edgeStyle=orthogonalEdgeStyle;rounded=0;orthogonalLoop=1;jettySize=auto;html=1;entryX=0.992;entryY=0.454;entryDx=0;entryDy=0;entryPerimeter=0;" edge="1" parent="1" source="I36a9Z0xhqDszeVbLj8E-1" target="I36a9Z0xhqDszeVbLj8E-2">
          <mxGeometry relative="1" as="geometry">
            <Array as="points">
              <mxPoint x="-200" y="310" />
              <mxPoint x="-200" y="310" />
            </Array>
          </mxGeometry>
        </mxCell>
        <mxCell id="I36a9Z0xhqDszeVbLj8E-35" value="&lt;h1 style=&quot;margin-top: 0px;&quot;&gt;Heading&lt;/h1&gt;&lt;p&gt;Lorem ipsum dolor sit amet, consectetur adipisicing elit, sed do eiusmod tempor incididunt ut labore et dolore magna aliqua.&lt;/p&gt;" style="text;html=1;whiteSpace=wrap;overflow=hidden;rounded=0;" vertex="1" parent="1">
          <mxGeometry x="-400" y="770" width="180" height="120" as="geometry" />
        </mxCell>
      </root>
    </mxGraphModel>
  </diagram>
</mxfile>
